<svg width="18" height="16" viewBox="0 0 18 16" fill="none" xmlns="http://www.w3.org/2000/svg">
<path fill-rule="evenodd" clip-rule="evenodd" d="M15.9175 2.8271V12.533C17.0221 12.533 17.9175 11.7429 17.9175 10.7683V1.94475C17.9175 0.970138 17.0221 0.180054 15.9175 0.180054H5.91747C4.8129 0.180054 3.91747 0.970138 3.91747 1.94475H14.9175C15.4698 1.94475 15.9175 2.33979 15.9175 2.8271ZM2.91748 2.82713H12.9175C14.0221 2.82713 14.9175 3.61722 14.9175 4.59184V13.4154C14.9175 14.39 14.0221 15.1801 12.9175 15.1801H2.91748C1.81291 15.1801 0.91748 14.39 0.91748 13.4154V4.59184C0.91748 3.61722 1.81291 2.82713 2.91748 2.82713ZM2.9176 4.59178V13.4153H12.9176V4.59178H2.9176Z" fill="#C4C4C4"/>
</svg>
