<svg width="24" height="25" viewBox="0 0 24 25" fill="none" xmlns="http://www.w3.org/2000/svg">
<path d="M15.589 11.5511L13.296 9.25807C13.1138 9.06946 13.013 8.81686 13.0153 8.55467C13.0176 8.29247 13.1227 8.04166 13.3081 7.85625C13.4935 7.67084 13.7444 7.56567 14.0066 7.56339C14.2687 7.56111 14.5214 7.66191 14.71 7.84407L18.71 11.8441C18.8974 12.0316 19.0027 12.2859 19.0027 12.5511C19.0027 12.8162 18.8974 13.0705 18.71 13.2581L14.71 17.2581C14.5214 17.4402 14.2687 17.541 14.0066 17.5387C13.7444 17.5365 13.4935 17.4313 13.3081 17.2459C13.1227 17.0605 13.0176 16.8097 13.0153 16.5475C13.013 16.2853 13.1138 16.0327 13.296 15.8441L15.589 13.5511H6.00195C5.73674 13.5511 5.48238 13.4457 5.29485 13.2582C5.10731 13.0706 5.00195 12.8163 5.00195 12.5511C5.00195 12.2859 5.10731 12.0315 5.29485 11.844C5.48238 11.6564 5.73674 11.5511 6.00195 11.5511H15.589Z" fill="#333333"/>
<mask id="mask0_1_92" style="mask-type:luminance" maskUnits="userSpaceOnUse" x="5" y="7" width="15" height="11">
<path d="M15.589 11.5511L13.296 9.25807C13.1138 9.06946 13.013 8.81686 13.0153 8.55467C13.0176 8.29247 13.1227 8.04166 13.3081 7.85625C13.4935 7.67084 13.7444 7.56567 14.0066 7.56339C14.2687 7.56111 14.5214 7.66191 14.71 7.84407L18.71 11.8441C18.8974 12.0316 19.0027 12.2859 19.0027 12.5511C19.0027 12.8162 18.8974 13.0705 18.71 13.2581L14.71 17.2581C14.5214 17.4402 14.2687 17.541 14.0066 17.5387C13.7444 17.5365 13.4935 17.4313 13.3081 17.2459C13.1227 17.0605 13.0176 16.8097 13.0153 16.5475C13.013 16.2853 13.1138 16.0327 13.296 15.8441L15.589 13.5511H6.00195C5.73674 13.5511 5.48238 13.4457 5.29485 13.2582C5.10731 13.0706 5.00195 12.8163 5.00195 12.5511C5.00195 12.2859 5.10731 12.0315 5.29485 11.844C5.48238 11.6564 5.73674 11.5511 6.00195 11.5511H15.589Z" fill="#333333"/>
</mask>
<g mask="url(#mask0_1_92)">
<path d="M-2.99707 -2.44897H27.0029V27.551H-2.99707V-2.44897Z" fill="#333333"/>
</g>
</svg>
