<svg width="25" height="25" viewBox="0 0 25 25" fill="none" xmlns="http://www.w3.org/2000/svg">
<path d="M15.6687 11.3611L13.3757 9.06811C13.1935 8.87951 13.0927 8.62691 13.095 8.36471C13.0973 8.10252 13.2024 7.8517 13.3878 7.6663C13.5733 7.48089 13.8241 7.37572 14.0863 7.37344C14.3485 7.37116 14.6011 7.47196 14.7897 7.65411L18.7897 11.6541C18.9771 11.8416 19.0825 12.096 19.0825 12.3611C19.0825 12.6263 18.9771 12.8806 18.7897 13.0681L14.7897 17.0681C14.6011 17.2503 14.3485 17.3511 14.0863 17.3488C13.8241 17.3465 13.5733 17.2413 13.3878 17.0559C13.2024 16.8705 13.0973 16.6197 13.095 16.3575C13.0927 16.0953 13.1935 15.8427 13.3757 15.6541L15.6687 13.3611H6.08167C5.81645 13.3611 5.56209 13.2558 5.37456 13.0682C5.18702 12.8807 5.08167 12.6263 5.08167 12.3611C5.08167 12.0959 5.18702 11.8415 5.37456 11.654C5.56209 11.4665 5.81645 11.3611 6.08167 11.3611H15.6687Z" fill="#FBFBFB"/>
<mask id="mask0_1_767" style="mask-type:luminance" maskUnits="userSpaceOnUse" x="5" y="7" width="15" height="11">
<path d="M15.6687 11.3611L13.3757 9.06811C13.1935 8.87951 13.0927 8.62691 13.095 8.36471C13.0973 8.10252 13.2024 7.8517 13.3878 7.6663C13.5733 7.48089 13.8241 7.37572 14.0863 7.37344C14.3485 7.37116 14.6011 7.47196 14.7897 7.65411L18.7897 11.6541C18.9771 11.8416 19.0825 12.096 19.0825 12.3611C19.0825 12.6263 18.9771 12.8806 18.7897 13.0681L14.7897 17.0681C14.6011 17.2503 14.3485 17.3511 14.0863 17.3488C13.8241 17.3465 13.5733 17.2413 13.3878 17.0559C13.2024 16.8705 13.0973 16.6197 13.095 16.3575C13.0927 16.0953 13.1935 15.8427 13.3757 15.6541L15.6687 13.3611H6.08167C5.81645 13.3611 5.56209 13.2558 5.37456 13.0682C5.18702 12.8807 5.08167 12.6263 5.08167 12.3611C5.08167 12.0959 5.18702 11.8415 5.37456 11.654C5.56209 11.4665 5.81645 11.3611 6.08167 11.3611H15.6687Z" fill="white"/>
</mask>
<g mask="url(#mask0_1_767)">
<path d="M-2.91736 -2.63889H27.0826V27.3611H-2.91736V-2.63889Z" fill="#FBFBFB"/>
</g>
</svg>
