<svg width="18" height="18" viewBox="0 0 18 18" fill="none" xmlns="http://www.w3.org/2000/svg">
<path d="M1.1875 9C1.1875 5.31715 1.1875 3.47573 2.33162 2.33162C3.47573 1.1875 5.31715 1.1875 9 1.1875C12.6828 1.1875 14.5243 1.1875 15.6684 2.33162C16.8125 3.47573 16.8125 5.31715 16.8125 9C16.8125 12.6828 16.8125 14.5243 15.6684 15.6684C14.5243 16.8125 12.6828 16.8125 9 16.8125C5.31715 16.8125 3.47573 16.8125 2.33162 15.6684C1.1875 14.5243 1.1875 12.6828 1.1875 9Z" stroke="#333333" stroke-width="1.125"/>
<path d="M6.65625 11.3438L11.3438 6.65625" stroke="#333333" stroke-width="1.125" stroke-linecap="round"/>
<path d="M11.7344 10.9531C11.7344 11.3846 11.3846 11.7344 10.9531 11.7344C10.5216 11.7344 10.1719 11.3846 10.1719 10.9531C10.1719 10.5216 10.5216 10.1719 10.9531 10.1719C11.3846 10.1719 11.7344 10.5216 11.7344 10.9531Z" fill="#333333"/>
<path d="M7.82812 7.04688C7.82812 7.47836 7.47836 7.82812 7.04688 7.82812C6.61541 7.82812 6.26562 7.47836 6.26562 7.04688C6.26562 6.61541 6.61541 6.26562 7.04688 6.26562C7.47836 6.26562 7.82812 6.61541 7.82812 7.04688Z" fill="#333333"/>
</svg>
