<svg width="21" height="21" viewBox="0 0 21 21" fill="none" xmlns="http://www.w3.org/2000/svg">
<path fill-rule="evenodd" clip-rule="evenodd" d="M13.5931 13.4397H14.4965L20.2026 19.1573L18.4988 20.8611L12.7812 15.155V14.2516L12.4725 13.9314C11.1689 15.0521 9.47654 15.7267 7.63546 15.7267C3.53026 15.7267 0.202637 12.3991 0.202637 8.29393C0.202637 4.18874 3.53026 0.861115 7.63546 0.861115C11.7406 0.861115 15.0682 4.18874 15.0682 8.29393C15.0682 10.135 14.3936 11.8274 13.2729 13.131L13.5931 13.4397ZM2.20264 8.36111C2.20264 11.4044 4.65931 13.8611 7.70264 13.8611C10.7459 13.8611 13.2026 11.4044 13.2026 8.36111C13.2026 5.31778 10.7459 2.86111 7.70264 2.86111C4.65931 2.86111 2.20264 5.31778 2.20264 8.36111Z" fill="#0054AE"/>
</svg>
