<svg width="18" height="20" viewBox="0 0 18 20" fill="none" xmlns="http://www.w3.org/2000/svg">
<path d="M-1.83569 0.714233H1.65312L2.89598 13.0714C2.94764 13.412 3.12067 13.7225 3.38319 13.9457C3.64571 14.1688 3.98004 14.2895 4.32455 14.2857H13.3246C13.6361 14.3019 13.9444 14.2158 14.2023 14.0404C14.4603 13.8649 14.6537 13.6099 14.7531 13.3142L16.6531 7.59995C16.724 7.38512 16.7428 7.15652 16.708 6.933C16.6733 6.70948 16.5858 6.49741 16.4531 6.31423C16.3148 6.11949 16.1298 5.96253 15.9153 5.8577C15.7007 5.75289 15.4631 5.70356 15.2246 5.71423H2.15312" stroke="#0054AE" stroke-width="1.5" stroke-linecap="round" stroke-linejoin="round"/>
<path d="M13.0822 19.2856C12.6878 19.2856 12.3679 18.9658 12.3679 18.5713C12.3679 18.1769 12.6878 17.8571 13.0822 17.8571C13.4766 17.8571 13.7965 18.1769 13.7965 18.5713C13.7965 18.9658 13.4766 19.2856 13.0822 19.2856Z" stroke="#0054AE" stroke-width="1.5" stroke-linecap="round" stroke-linejoin="round"/>
<path d="M3.79717 19.2856C3.40267 19.2856 3.08289 18.9658 3.08289 18.5713C3.08289 18.1769 3.40267 17.8571 3.79717 17.8571C4.19166 17.8571 4.51146 18.1769 4.51146 18.5713C4.51146 18.9658 4.19166 19.2856 3.79717 19.2856Z" stroke="#0054AE" stroke-width="1.5" stroke-linecap="round" stroke-linejoin="round"/>
</svg>
